<?xml version="1.0" ?><svg id="Layer_1" style="enable-background:new 0 0 512 512;" version="1.1" viewBox="0 0 512 512" xml:space="preserve" xmlns="http://www.w3.org/2000/svg" xmlns:xlink="http://www.w3.org/1999/xlink"><g id="XMLID_61_"><path d="M365.6,285.9H40.3v133.9h276.3L365.6,285.9z M142.9,383.7c-4.4,3.4-10.2,5-17.4,5   c-6.9,0-12.9-1.8-18.1-5.5c-5.1-3.7-7.6-8.9-7.5-15.6l0.1-0.3h10.9c0,4.1,1.4,7.2,4.2,9.2c2.8,2.1,6.3,3.1,10.3,3.1   c4,0,7.1-0.8,9.4-2.5c2.2-1.7,3.3-4,3.3-6.9c0-2.8-1-5.2-3-7c-2-1.8-5.6-3.4-10.7-4.9c-7.3-2-13-4.7-16.9-8c-4-3.3-6-7.6-6-12.9   c0-5.5,2.2-10,6.5-13.6c4.4-3.6,10-5.3,16.8-5.3c7.4,0,13.2,2,17.6,5.9c4.4,3.9,6.5,8.8,6.4,14.6l-0.1,0.3h-10.9   c0-3.6-1.2-6.4-3.6-8.6c-2.4-2.1-5.6-3.2-9.5-3.2c-3.8,0-6.8,0.9-8.9,2.7c-2.1,1.8-3.1,4.1-3.1,7c0,2.6,1.1,4.8,3.4,6.5   c2.3,1.7,6,3.3,11.3,4.8c7.1,2,12.6,4.7,16.3,8.2c3.7,3.4,5.6,7.8,5.6,13.2C149.5,375.8,147.3,380.3,142.9,383.7z M192.6,387.8   h-10.8l-24.3-68h12.1l16.2,49.6l1.2,5h0.3l1.2-4.9l16.3-49.7h12.1L192.6,387.8z M277.4,378.6c-1.9,2.6-4.9,5-8.9,7.1   c-4.1,2.1-9.4,3.1-15.9,3.1c-8,0-14.6-2.6-19.8-7.8c-5.2-5.2-7.8-11.9-7.8-20.1v-14.2c0-8.2,2.5-14.9,7.5-20.1   c5-5.2,11.5-7.8,19.3-7.8c7.9,0,14.1,2,18.5,6c4.4,4,6.6,9.2,6.4,15.6l-0.1,0.3h-10.8c0-3.8-1.2-6.9-3.6-9.3s-5.8-3.5-10.3-3.5   c-4.7,0-8.5,1.8-11.4,5.3c-2.9,3.5-4.3,8-4.3,13.4v14.3c0,5.5,1.5,10,4.5,13.5c3,3.5,6.9,5.3,11.8,5.3c3.6,0,6.5-0.4,8.6-1.2   c2.1-0.8,3.7-1.8,4.8-3v-14.1h-14.3v-8.5h25.6V378.6z" id="XMLID_441_"/><path d="M352.9,6L352.9,6L107.4,6c-7.3,0-13.3,6-13.3,13.3v256.8h26.6V32.6h232.2v92.2h92.2v354.6H120.7v-49.8   H94.1v63.1c0,7.3,6,13.3,13.3,13.3h351c7.3,0,13.3-6,13.3-13.3V124.8L352.9,6z" id="XMLID_440_"/><rect height="19.6" id="XMLID_439_" width="253.4" x="156.2" y="171.4"/><rect height="19.6" id="XMLID_438_" width="213.3" x="156.2" y="209.5"/></g></svg>